<?xml version="1.0" encoding="utf-8"?><svg version="1.1" id="Layer_1" xmlns="http://www.w3.org/2000/svg" xmlns:xlink="http://www.w3.org/1999/xlink" x="0px" y="0px" viewBox="0 0 104.88 122.88" style="enable-background:new 0 0 104.88 122.88" xml:space="preserve"><style type="text/css">.st0{fill-rule:evenodd;clip-rule:evenodd;}</style><g><path class="st0" d="M66.91,13.15h-5.19V2.69c0-1.48-1.21-2.69-2.69-2.69l0,0c-1.48,0-2.69,1.21-2.69,2.69v10.45h-7.92V2.69 C48.41,1.21,47.2,0,45.72,0l0,0c-1.48,0-2.69,1.21-2.69,2.69v10.45h-5.06c-0.94,0-1.7,0.77-1.7,1.71v1.98c0,0.94,0.77,1.7,1.7,1.7 h28.94c0.94,0,1.71-0.77,1.71-1.7v-1.98C68.62,13.91,67.85,13.15,66.91,13.15L66.91,13.15L66.91,13.15z M50.87,82.38l-6.62-0.62 l5.49-12.01h7.5l-4.25,6.89l7.65,0.85L46.59,94.34L50.87,82.38L50.87,82.38z M100.68,70.62v52.26H88.47v-8.08H16.42v8.08H4.21 V70.62H0v-8.03h10.28L16,46.58c1.69-5.26,4.51-10.03,10.02-10.03h23.21c-0.02-0.59-0.08-1.32-0.2-2.28H49 c-7.29-0.7-9.98-4.99-9.98-12v-3.72h26.55v4.13c0,6.92-2.34,10.46-9.05,11.53c0.1,1,0.16,1.73,0.17,2.34h24.3 c5.51,0,8.69,4.68,10.02,10.02l4.43,16.01h9.44v8.03L100.68,70.62L100.68,70.62L100.68,70.62L100.68,70.62z M59.48,20.06H45.13 v2.13h14.36V20.06L59.48,20.06L59.48,20.06z M34.15,98.68h36.08v8.51H34.15V98.68L34.15,98.68L34.15,98.68L34.15,98.68z M8.3,78.86 c9.19,0.29,14.82,4.14,16.26,12.17H8.3V78.86L8.3,78.86L8.3,78.86z M95.43,78.86C86.24,79.15,80.61,83,79.17,91.03h16.26V78.86 L95.43,78.86L95.43,78.86z M14.66,62.58h75.56l-3.24-13.13c-0.89-4.1-3.44-7.64-7.64-7.64H27.09c-4.2,0-6.35,3.64-7.64,7.64 L14.66,62.58L14.66,62.58L14.66,62.58L14.66,62.58z"/></g></svg>